<svg xmlns="http://www.w3.org/2000/svg" viewBox="0 0 48 32" fill="none">
  <rect width="48" height="32" rx="4" fill="#000"/>
  <path d="M13.5 10.8C14.2 9.9 14.7 8.7 14.5 7.5C13.5 7.5 12.3 8.2 11.6 9.1C10.9 9.9 10.4 11.1 10.6 12.3C11.7 12.4 12.8 11.7 13.5 10.8Z" fill="white"/>
  <path d="M14.5 12.5C12.9 12.4 11.5 13.4 10.7 13.4C9.9 13.4 8.7 12.5 7.4 12.6C5.7 12.6 4.2 13.5 3.3 15C1.5 18 2.8 22.2 4.6 24.6C5.4 25.8 6.4 27.1 7.7 27.1C9 27 9.5 26.3 11 26.3C12.5 26.3 12.9 27.1 14.3 27C15.7 27 16.6 25.8 17.4 24.6C18.3 23.2 18.7 21.9 18.7 21.8C18.7 21.8 16 20.7 16 17.6C16 14.9 18.2 13.7 18.3 13.6C17 11.7 15.1 12.5 14.5 12.5Z" fill="white"/>
  <path d="M24 13H27.5C29.5 13 31 14.5 31 16.5C31 18.5 29.5 20 27.5 20H26V24H24V13ZM26 18.3H27.3C28.5 18.3 29.2 17.6 29.2 16.5C29.2 15.4 28.5 14.7 27.3 14.7H26V18.3Z" fill="white"/>
  <path d="M35 18.3C35 16.2 36.5 14.8 38.8 14.8C39.9 14.8 40.8 15.1 41.5 15.7L40.5 17C40 16.6 39.5 16.4 38.9 16.4C37.8 16.4 37 17.2 37 18.3C37 19.4 37.8 20.2 38.9 20.2C39.5 20.2 40 20 40.5 19.6L41.5 20.9C40.8 21.5 39.9 21.8 38.8 21.8C36.5 21.8 35 20.4 35 18.3Z" fill="white"/>
  <path d="M42 24V15H43.8V16.3H43.9C44.3 15.4 45.1 14.8 46.2 14.8C46.4 14.8 46.6 14.8 46.8 14.9V16.7C46.6 16.6 46.3 16.6 46 16.6C44.8 16.6 44 17.4 44 18.5V24H42Z" fill="white"/>
</svg>
