<svg xmlns="http://www.w3.org/2000/svg" viewBox="0 0 48 32" fill="none">
  <rect width="48" height="32" rx="4" fill="#1A1F71"/>
  <path d="M19.5 21H17L18.8 11H21.3L19.5 21Z" fill="#FFFFFE"/>
  <path d="M28.5 11.2C28 11 27.2 10.8 26.2 10.8C23.7 10.8 22 12.1 22 13.9C22 15.3 23.3 16 24.3 16.5C25.3 17 25.6 17.3 25.6 17.7C25.6 18.3 24.9 18.6 24.2 18.6C23.2 18.6 22.7 18.5 21.9 18.1L21.6 18L21.3 20.3C21.9 20.6 23 20.8 24.1 20.8C26.8 20.8 28.4 19.5 28.4 17.6C28.4 16.5 27.7 15.6 26.2 14.9C25.3 14.5 24.7 14.2 24.7 13.7C24.7 13.3 25.2 12.9 26.1 12.9C26.9 12.9 27.5 13.1 28 13.3L28.2 13.4L28.5 11.2Z" fill="#FFFFFE"/>
  <path d="M32.4 11H30.4C29.8 11 29.3 11.2 29.1 11.8L25.3 21H28L28.5 19.5H31.8L32.1 21H34.5L32.4 11ZM29.3 17.6C29.5 17 30.5 14.3 30.5 14.3C30.5 14.3 30.8 13.5 30.9 13L31.1 14.2C31.1 14.2 31.8 17 31.9 17.6H29.3Z" fill="#FFFFFE"/>
  <path d="M16 11L13.5 17.8L13.2 16.3C12.7 14.7 11.2 13 9.5 12.2L11.8 21H14.5L18.7 11H16Z" fill="#FFFFFE"/>
  <path d="M12 11H7.8L7.8 11.2C11.1 12 13.3 14.1 14.1 16.3L13.2 11.8C13.1 11.2 12.6 11 12 11Z" fill="#F9A533"/>
</svg>
